<svg xmlns="http://www.w3.org/2000/svg" width="24" height="24" viewBox="0 0 24 24" fill="none">
  <g opacity="0.8">
    <path d="M14.0847 21.7208C18.7987 20.7562 22.3447 16.5853 22.3447 11.5862C22.3447 5.87287 17.7131 1.24133 11.9999 1.24133C6.28657 1.24133 1.65503 5.87287 1.65503 11.5862C1.65503 16.5346 5.12953 20.6716 9.77203 21.6905V14.2154H7.44813V11.1394H9.77203V8.51213C9.77203 6.4476 11.1448 4.55168 14.3078 4.55168C15.5885 4.55168 16.5355 4.67102 16.5355 4.67102L16.4609 7.54345C16.4609 7.54345 15.4951 7.53431 14.4412 7.53431C13.3005 7.53431 13.1178 8.04529 13.1178 8.89339V11.1394H16.5516L16.4022 14.2154H13.1178V21.8713C13.4449 21.8361 13.7674 21.7857 14.0847 21.7208Z" fill="white"/>
  </g>
</svg>