<svg xmlns="http://www.w3.org/2000/svg" width="24" height="24" viewBox="0 0 24 24" fill="none">
  <g opacity="0.8">
    <path fill-rule="evenodd" clip-rule="evenodd" d="M22.3447 11.5862C22.3447 17.2991 17.7128 21.931 11.9999 21.931C6.28693 21.931 1.65503 17.2991 1.65503 11.5862C1.65503 5.87323 6.28693 1.24133 11.9999 1.24133C17.7128 1.24133 22.3447 5.87323 22.3447 11.5862ZM12.3705 8.8784C11.3645 9.29651 9.3533 10.1629 6.33779 11.4767C5.84813 11.6715 5.59124 11.862 5.56796 12.0482C5.52831 12.3637 5.92313 12.4879 6.45934 12.656C6.53262 12.6793 6.60848 12.7025 6.68606 12.7284C7.21451 12.9 7.92486 13.1008 8.29382 13.1086C8.62917 13.1155 9.00331 12.9775 9.41624 12.6948C12.2335 10.7922 13.6878 9.83099 13.7792 9.8103C13.8438 9.79564 13.9335 9.77668 13.9938 9.83099C14.0542 9.88444 14.0481 9.98616 14.0421 10.0137C14.0024 10.1801 12.4559 11.6189 11.6542 12.3637C11.4042 12.5956 11.2274 12.7603 11.1912 12.7982C11.1102 12.8819 11.0274 12.962 10.9481 13.0387C10.4568 13.5112 10.0895 13.8663 10.9688 14.4456C11.3912 14.7241 11.7292 14.9543 12.0662 15.1836C12.4343 15.4344 12.8016 15.6844 13.2774 15.9965C13.3981 16.0758 13.5136 16.1577 13.6266 16.2379C14.055 16.5439 14.4404 16.8181 14.9162 16.775C15.1921 16.7491 15.4783 16.4896 15.6231 15.7146C15.9654 13.8818 16.6395 9.91288 16.7955 8.27668C16.805 8.14083 16.7993 8.00434 16.7783 7.86978C16.7658 7.7611 16.7128 7.6611 16.63 7.58961C16.5068 7.48875 16.3154 7.4672 16.2292 7.46892C15.8404 7.47582 15.2438 7.68357 12.3705 8.8784Z" fill="white"/>
  </g>
</svg>