<svg width="96" height="96" viewBox="0 0 96 96" fill="none" xmlns="http://www.w3.org/2000/svg">
  <path opacity="0.9" d="M78.7199 48V81.0667C78.7199 84.0122 76.332 86.4 73.3865 86.4H22.6132C19.6677 86.4 17.2799 84.0122 17.2799 81.0667V48M47.9999 86.4V28.8M47.9999 28.8H30.7199C28.1738 28.8 25.732 27.7886 23.9316 25.9883C22.1313 24.1879 21.1199 21.7461 21.1199 19.2C21.1199 16.654 22.1313 14.2122 23.9316 12.4118C25.732 10.6115 28.1738 9.60004 30.7199 9.60004C44.1599 9.60004 47.9999 28.8 47.9999 28.8ZM47.9999 28.8H65.2799C67.8259 28.8 70.2677 27.7886 72.0681 25.9883C73.8684 24.1879 74.8799 21.7461 74.8799 19.2C74.8799 16.654 73.8684 14.2122 72.0681 12.4118C70.2677 10.6115 67.8259 9.60004 65.2799 9.60004C51.8399 9.60004 47.9999 28.8 47.9999 28.8ZM14.9332 48H81.0665C84.012 48 86.3999 45.6122 86.3999 42.6667V34.1334C86.3999 31.1879 84.012 28.8 81.0665 28.8H14.9332C11.9877 28.8 9.59985 31.1878 9.59985 34.1334V42.6667C9.59985 45.6122 11.9877 48 14.9332 48Z" stroke="white" stroke-width="2.66667" stroke-linecap="round" stroke-linejoin="round"/>
</svg>
